<svg viewBox="0 0 199 199" fill="none" xmlns="http://www.w3.org/2000/svg">
  <path d="M56.264 101.34C56.8733 100.662 57.464 99.969 58.112 99.2277C57.4493 98.4757 56.9293 97.8757 56.3987 97.2864C38.6067 77.5184 17.8747 54.8157 0 34.905V163.688C0.876 162.826 1.616 162.093 1.98133 161.685C20.0493 141.546 38.1627 121.448 56.264 101.34Z" fill="#3BD9CA"/>
  <path d="M118.867 198.478H163.751C182.851 198.478 198.479 182.85 198.479 163.75V107.989C179.62 129.102 141.2 173.253 118.867 198.478Z" fill="#3BD9CA"/>
  <path d="M143.61 102.953C144.675 101.769 145.735 100.581 146.943 99.2333C139.738 91.224 132.693 83.3933 125.649 75.564C113.829 62.4253 101.997 49.2973 90.1927 36.144C86.4607 31.9867 87.4287 26.4573 92.2167 24.6653C93.3687 24.2346 94.6887 24.0906 95.9314 24.0866C108.803 24.0466 121.675 24.0813 134.547 24.0453C137.33 24.0387 139.534 24.992 141.411 27.0827C160.415 48.244 179.454 69.3733 198.478 90.5173V34.728C198.478 15.628 182.851 -8.5148e-06 163.75 -8.5148e-06H34.7287C19.3474 -8.5148e-06 6.22608 10.1373 1.69541 24.0573C14.7874 24.1227 34.3581 24.096 45.2421 24.0307C48.4047 24.012 50.8207 25.0627 52.9527 27.44C72.7554 49.5333 92.6207 71.572 112.473 93.62C116.081 97.6266 116.085 100.857 112.481 104.86C92.6287 126.909 72.7647 148.948 52.9607 171.04C50.8314 173.417 48.4087 174.465 45.2474 174.447C35.2287 174.388 15.5194 174.36 1.69141 174.407C6.21674 188.335 19.3434 198.479 34.7287 198.479H57.7407C80.2714 173.447 127.718 120.612 143.61 102.953Z" fill="#3BD9CA"/>
</svg>
